<svg width="545" height="301" viewBox="0 0 545 301" fill="none" xmlns="http://www.w3.org/2000/svg">
<path d="M20 281V20H525V281H20Z" fill="#50C850" stroke="black" stroke-width="40" stroke-linecap="round" stroke-linejoin="round"/>
<path d="M465 281C465 247.863 491.863 221 525 221L525 281L465 281Z" fill="black"/>
<path d="M525 80C491.863 80 465 53.1371 465 20L525 20L525 80Z" fill="black"/>
<path d="M80 20C80 53.1371 53.1371 80 20 80L20 20L80 20Z" fill="black"/>
<path d="M20 220C53.1371 220 80 246.863 80 280H20L20 220Z" fill="black"/>
<path d="M329 150C329 174.336 322.54 194.948 312.342 208.919C302.462 222.454 289.07 230 272.5 230C255.93 230 242.538 222.454 232.658 208.919C222.46 194.948 216 174.336 216 150C216 125.664 222.46 105.052 232.658 91.081C242.538 77.5457 255.93 70 272.5 70C289.07 70 302.462 77.5457 312.342 91.081C322.54 105.052 329 125.664 329 150Z" stroke="black" stroke-width="40"/>
</svg>
