<svg width="180" height="213" viewBox="0 0 180 213" fill="none" xmlns="http://www.w3.org/2000/svg">
	<path d="M180 153C180 208.228 145.228 213 90 213C34.7715 213 0 208.228 0 153C0 126.267 17 88 52 65C119.183 65 61.5045 65 90 65C118.496 65 60.8172 65 128 65C163 88 180 126.267 180 153Z" fill="white"/>
	<path d="M60 46H120L133.609 16.0593C134.419 14.2781 133.865 12.1733 132.284 11.0212C126.514 6.81743 119.414 4.85277 112.304 5.49267L111.535 5.56187C108.309 5.85222 105.147 6.63841 102.16 7.89271L87.7026 13.9649C78.3724 17.8836 68.0273 18.6891 58.203 16.2619C52.8594 14.9417 48.35 20.37 50.6277 25.381L60 46Z" fill="white" stroke="white" stroke-width="10" stroke-linecap="round"/>
</svg>