<svg width="600" height="356" viewBox="0 0 600 356" fill="none" xmlns="http://www.w3.org/2000/svg">
<path d="M20 75V205.5V270.75C20 270.75 20 276.25 20 297.375M525 336C525 336 77.4341 336 58.9557 336M20 297.375C20 318.5 40.4773 336 58.9557 336M20 297.375V319.688V327.844C20 329 21.242 331.353 22.7545 333C24.2671 334.647 26.4273 336 27.4889 336H34.9778H58.9557" stroke="#50C850" stroke-width="40" stroke-linecap="round" stroke-linejoin="round"/>
<path d="M75 281V20H580V281H75Z" stroke="#50C850" stroke-width="40" stroke-linecap="round" stroke-linejoin="round"/>
<path d="M520 281C520 247.863 546.863 221 580 221L580 281L520 281Z" fill="#50C850"/>
<path d="M580 80C546.863 80 520 53.1371 520 20L580 20L580 80Z" fill="#50C850"/>
<path d="M135 20C135 53.1371 108.137 80 75 80L75 20L135 20Z" fill="#50C850"/>
<path d="M75 220C108.137 220 135 246.863 135 280H75L75 220Z" fill="#50C850"/>
<path d="M384 150C384 174.336 377.54 194.948 367.342 208.919C357.462 222.454 344.07 230 327.5 230C310.93 230 297.538 222.454 287.658 208.919C277.46 194.948 271 174.336 271 150C271 125.664 277.46 105.052 287.658 91.081C297.538 77.5457 310.93 70 327.5 70C344.07 70 357.462 77.5457 367.342 91.081C377.54 105.052 384 125.664 384 150Z" stroke="#50C850" stroke-width="40"/>
</svg>
